<?xml version="1.0" encoding="UTF-8"?>
<svg width="28.906px" height="29.5797053px" viewBox="0 0 28.906 29.5797053" version="1.1" xmlns="http://www.w3.org/2000/svg" xmlns:xlink="http://www.w3.org/1999/xlink">
    <!-- Generator: Sketch 61.2 (89653) - https://sketch.com -->
    <desc>Created with Sketch.</desc>
    <g id="Page-1" stroke="none" stroke-width="1" fill="none" fill-rule="evenodd">
        <path d="M11.4529903,0 C5.13430816,0 0,5.13430816 0,11.4529903 C0,17.7716724 5.13430816,22.9059805 11.4529903,22.9059805 C13.9531107,22.9059805 16.2639199,22.1009027 18.1482736,20.7373231 L27.0115407,29.5797053 L28.906,27.685246 L20.147831,18.9055184 C21.869148,16.9005714 22.9059805,14.2980478 22.9059805,11.4529903 C22.9059805,5.13430816 17.7716724,0 11.4529903,0 Z M11.4529903,1.34741062 C17.0427232,1.34741062 21.5585699,5.86325731 21.5585699,11.4529903 C21.5585699,17.0427232 17.0427232,21.5585699 11.4529903,21.5585699 C5.86325731,21.5585699 1.34741062,17.0427232 1.34741062,11.4529903 C1.34741062,5.86325731 5.86325731,1.34741062 11.4529903,1.34741062 Z" id="icons8-search" fill="#FFFFFF"></path>
    </g>
</svg>